<svg width="42" height="43" viewBox="0 0 42 43" fill="none" xmlns="http://www.w3.org/2000/svg">
<path fill-rule="evenodd" clip-rule="evenodd" d="M21.1065 4.28597C20.6578 4.29678 20.2313 4.48311 19.9184 4.80495C19.6056 5.12679 19.4315 5.55847 19.4334 6.00728V25.8627C18.1208 25.1049 16.5949 24.8013 15.0922 24.9991C13.5896 25.1969 12.1942 25.885 11.1224 26.9566C10.0506 28.0283 9.36241 29.4236 9.16446 30.9262C8.9665 32.4289 9.26988 33.9548 10.0275 35.2675C10.7852 36.5801 11.9548 37.6061 13.355 38.1863C14.7551 38.7665 16.3076 38.8685 17.7717 38.4765C19.2357 38.0845 20.5295 37.2203 21.4524 36.0181C22.3753 34.8158 22.8757 33.3427 22.876 31.8271V14.9237L31.2003 16.3111C31.4468 16.3521 31.6993 16.3389 31.9401 16.2725C32.181 16.2061 32.4045 16.088 32.5952 15.9265C32.7859 15.765 32.9391 15.5639 33.0442 15.3373C33.1493 15.1106 33.2038 14.8637 33.2039 14.6139V7.7286C33.2038 7.32116 33.059 6.92699 32.7955 6.61621C32.532 6.30543 32.1668 6.0982 31.7649 6.03138L21.4697 4.31523C21.35 4.29265 21.2283 4.28284 21.1065 4.28597Z" fill="url(#paint0_linear_10024_1113)"/>
<defs>
<linearGradient id="paint0_linear_10024_1113" x1="21.1547" y1="4.2854" x2="21.1547" y2="38.7108" gradientUnits="userSpaceOnUse">
<stop stop-color="#BC8431"/>
<stop stop-color="#ECC777"/>
<stop stop-color="#FEF7DF"/>
<stop stop-color="#ECC777"/>
<stop stop-color="#BC8431"/>
<stop stop-color="#ECC777"/>
<stop offset="0.0725" stop-color="#FEF7DF"/>
<stop offset="0.2305" stop-color="#ECC777"/>
<stop offset="0.2876" stop-color="#BC8431"/>
<stop offset="0.3457" stop-color="#ECC777"/>
<stop offset="0.5311" stop-color="#FEF7DF"/>
<stop offset="0.6472" stop-color="#ECC777"/>
<stop offset="0.7976" stop-color="#BC8431"/>
</linearGradient>
</defs>
</svg>
